<svg width="257" height="60" viewBox="0 0 257 60" fill="none" xmlns="http://www.w3.org/2000/svg">
<path d="M8 14C8 9.58172 11.5817 6 16 6C20.4183 6 24 9.58172 24 14V22H16C11.5817 22 8 18.4183 8 14Z" fill="#FFCD2E"/>
<path d="M0 35C0 28.3726 5.37258 23 12 23H24V35C24 41.6274 18.6274 47 12 47C5.37258 47 0 41.6274 0 35Z" fill="#A259FE"/>
<path d="M25 25C25 18.3726 30.3726 13 37 13C43.6274 13 49 18.3726 49 25C49 31.6274 43.6274 37 37 37H25V25Z" fill="#FF7162"/>
<path d="M25 38H33C37.4183 38 41 41.5817 41 46C41 50.4183 37.4183 54 33 54C28.5817 54 25 50.4183 25 46V38Z" fill="#0DCF82"/>
<path d="M73.4 44.28C71.4533 44.28 69.6933 43.9467 68.12 43.28C66.5733 42.6133 65.3467 41.6533 64.44 40.4C63.5333 39.1467 63.0667 37.6667 63.04 35.96H69.04C69.12 37.1067 69.52 38.0133 70.24 38.68C70.9867 39.3467 72 39.68 73.28 39.68C74.5867 39.68 75.6133 39.3733 76.36 38.76C77.1067 38.12 77.48 37.2933 77.48 36.28C77.48 35.4533 77.2267 34.7733 76.72 34.24C76.2133 33.7067 75.5733 33.2933 74.8 33C74.0533 32.68 73.0133 32.3333 71.68 31.96C69.8667 31.4267 68.3867 30.9067 67.24 30.4C66.12 29.8667 65.1467 29.08 64.32 28.04C63.52 26.9733 63.12 25.56 63.12 23.8C63.12 22.1467 63.5333 20.7067 64.36 19.48C65.1867 18.2533 66.3467 17.32 67.84 16.68C69.3333 16.0133 71.04 15.68 72.96 15.68C75.84 15.68 78.1733 16.3867 79.96 17.8C81.7733 19.1867 82.7733 21.1333 82.96 23.64H76.8C76.7467 22.68 76.3333 21.8933 75.56 21.28C74.8133 20.64 73.8133 20.32 72.56 20.32C71.4667 20.32 70.5867 20.6 69.92 21.16C69.28 21.72 68.96 22.5333 68.96 23.6C68.96 24.3467 69.2 24.9733 69.68 25.48C70.1867 25.96 70.8 26.36 71.52 26.68C72.2667 26.9733 73.3067 27.32 74.64 27.72C76.4533 28.2533 77.9333 28.7867 79.08 29.32C80.2267 29.8533 81.2133 30.6533 82.04 31.72C82.8667 32.7867 83.28 34.1867 83.28 35.92C83.28 37.4133 82.8933 38.8 82.12 40.08C81.3467 41.36 80.2133 42.3867 78.72 43.16C77.2267 43.9067 75.4533 44.28 73.4 44.28ZM107.855 21.84V44H102.215V41.2C101.495 42.16 100.548 42.92 99.375 43.48C98.2283 44.0133 96.975 44.28 95.615 44.28C93.8817 44.28 92.3483 43.92 91.015 43.2C89.6817 42.4533 88.6283 41.3733 87.855 39.96C87.1083 38.52 86.735 36.8133 86.735 34.84V21.84H92.335V34.04C92.335 35.8 92.775 37.16 93.655 38.12C94.535 39.0533 95.735 39.52 97.255 39.52C98.8017 39.52 100.015 39.0533 100.895 38.12C101.775 37.16 102.215 35.8 102.215 34.04V21.84H107.855ZM116.98 25.04C117.7 24.0267 118.687 23.1867 119.94 22.52C121.22 21.8267 122.674 21.48 124.3 21.48C126.194 21.48 127.9 21.9467 129.42 22.88C130.967 23.8133 132.18 25.1467 133.06 26.88C133.967 28.5867 134.42 30.5733 134.42 32.84C134.42 35.1067 133.967 37.12 133.06 38.88C132.18 40.6133 130.967 41.96 129.42 42.92C127.9 43.88 126.194 44.36 124.3 44.36C122.674 44.36 121.234 44.0267 119.98 43.36C118.754 42.6933 117.754 41.8533 116.98 40.84V54.56H111.38V21.84H116.98V25.04ZM128.7 32.84C128.7 31.5067 128.42 30.36 127.86 29.4C127.327 28.4133 126.607 27.6667 125.7 27.16C124.82 26.6533 123.86 26.4 122.82 26.4C121.807 26.4 120.847 26.6667 119.94 27.2C119.06 27.7067 118.34 28.4533 117.78 29.44C117.247 30.4267 116.98 31.5867 116.98 32.92C116.98 34.2533 117.247 35.4133 117.78 36.4C118.34 37.3867 119.06 38.1467 119.94 38.68C120.847 39.1867 121.807 39.44 122.82 39.44C123.86 39.44 124.82 39.1733 125.7 38.64C126.607 38.1067 127.327 37.3467 127.86 36.36C128.42 35.3733 128.7 34.2 128.7 32.84ZM158.29 32.44C158.29 33.24 158.236 33.96 158.13 34.6H141.93C142.063 36.2 142.623 37.4533 143.61 38.36C144.596 39.2667 145.81 39.72 147.25 39.72C149.33 39.72 150.81 38.8267 151.69 37.04H157.73C157.09 39.1733 155.863 40.9333 154.05 42.32C152.236 43.68 150.01 44.36 147.37 44.36C145.236 44.36 143.316 43.8933 141.61 42.96C139.93 42 138.61 40.6533 137.65 38.92C136.716 37.1867 136.25 35.1867 136.25 32.92C136.25 30.6267 136.716 28.6133 137.65 26.88C138.583 25.1467 139.89 23.8133 141.57 22.88C143.25 21.9467 145.183 21.48 147.37 21.48C149.476 21.48 151.356 21.9333 153.01 22.84C154.69 23.7467 155.983 25.04 156.89 26.72C157.823 28.3733 158.29 30.28 158.29 32.44ZM152.49 30.84C152.463 29.4 151.943 28.2533 150.93 27.4C149.916 26.52 148.676 26.08 147.21 26.08C145.823 26.08 144.65 26.5067 143.69 27.36C142.756 28.1867 142.183 29.3467 141.97 30.84H152.49ZM167.177 25.28C167.897 24.1067 168.831 23.1867 169.977 22.52C171.151 21.8533 172.484 21.52 173.977 21.52V27.4H172.497C170.737 27.4 169.404 27.8133 168.497 28.64C167.617 29.4667 167.177 30.9067 167.177 32.96V44H161.577V21.84H167.177V25.28ZM188.309 26.44H184.429V44H178.749V26.44H176.229V21.84H178.749V20.72C178.749 18 179.522 16 181.069 14.72C182.616 13.44 184.949 12.84 188.069 12.92V17.64C186.709 17.6133 185.762 17.84 185.229 18.32C184.696 18.8 184.429 19.6667 184.429 20.92V21.84H188.309V26.44ZM197.538 14.4V44H191.938V14.4H197.538ZM211.711 44.36C209.578 44.36 207.658 43.8933 205.951 42.96C204.244 42 202.898 40.6533 201.911 38.92C200.951 37.1867 200.471 35.1867 200.471 32.92C200.471 30.6533 200.964 28.6533 201.951 26.92C202.964 25.1867 204.338 23.8533 206.071 22.92C207.804 21.96 209.738 21.48 211.871 21.48C214.004 21.48 215.938 21.96 217.671 22.92C219.404 23.8533 220.764 25.1867 221.751 26.92C222.764 28.6533 223.271 30.6533 223.271 32.92C223.271 35.1867 222.751 37.1867 221.711 38.92C220.698 40.6533 219.311 42 217.551 42.96C215.818 43.8933 213.871 44.36 211.711 44.36ZM211.711 39.48C212.724 39.48 213.671 39.24 214.551 38.76C215.458 38.2533 216.178 37.5067 216.711 36.52C217.244 35.5333 217.511 34.3333 217.511 32.92C217.511 30.8133 216.951 29.2 215.831 28.08C214.738 26.9333 213.391 26.36 211.791 26.36C210.191 26.36 208.844 26.9333 207.751 28.08C206.684 29.2 206.151 30.8133 206.151 32.92C206.151 35.0267 206.671 36.6533 207.711 37.8C208.778 38.92 210.111 39.48 211.711 39.48ZM256.499 21.84L250.019 44H243.979L239.939 28.52L235.899 44H229.819L223.299 21.84H228.979L232.899 38.72L237.139 21.84H243.059L247.219 38.68L251.139 21.84H256.499Z" fill="white"/>
</svg>
